<svg width="21" height="21" viewBox="0 0 21 21" fill="none" xmlns="http://www.w3.org/2000/svg">
<path d="M9.45245 5.23188C9.79113 5.18181 10.1405 5.15495 10.5003 5.15495C14.7545 5.15495 17.5461 8.90898 18.4839 10.394C18.5974 10.5737 18.6542 10.6636 18.6859 10.8022C18.7098 10.9063 18.7098 11.0705 18.6859 11.1746C18.6541 11.3132 18.597 11.4037 18.4827 11.5846C18.2328 11.9801 17.8518 12.5359 17.3471 13.1387M6.1036 6.58415C4.30187 7.80637 3.07871 9.50443 2.51759 10.3927C2.40357 10.5732 2.34656 10.6634 2.31478 10.802C2.29091 10.9061 2.2909 11.0703 2.31476 11.1744C2.34652 11.313 2.40328 11.4029 2.51678 11.5826C3.45462 13.0676 6.24618 16.8216 10.5003 16.8216C12.2157 16.8216 13.6932 16.2113 14.9073 15.3854M3.00035 3.48828L18.0003 18.4883M8.73258 9.22051C8.28017 9.67292 8.00035 10.2979 8.00035 10.9883C8.00035 12.369 9.11963 13.4883 10.5003 13.4883C11.1907 13.4883 11.8157 13.2085 12.2681 12.756" stroke="#667085" stroke-width="1.75" stroke-linecap="round" stroke-linejoin="round"/>
</svg>
