<svg width="25" height="26" viewBox="0 0 25 26" fill="none" xmlns="http://www.w3.org/2000/svg">
<path d="M21.7732 7.62237C21.068 5.50675 19.6576 4.09634 17.542 3.21483V0.570312H15.779V3.03853H15.0738C13.1345 3.03853 11.5477 3.74374 10.1373 5.15415L9.43212 5.85935L6.9639 4.97785C6.435 4.80155 5.9061 4.62525 5.20089 4.62525C4.14308 4.62525 3.08527 4.97785 2.20377 5.68305C1.14596 6.38826 0.617055 7.26977 0.264452 8.15127C-0.0881507 9.38538 -0.0881507 10.4432 0.264452 11.6773C0.793356 12.9114 1.32226 13.7929 2.20377 14.3218C1.49856 16.9663 2.02747 19.2583 3.96678 21.1976C5.37719 22.608 6.96391 23.3132 8.90322 23.3132C9.78473 23.3132 10.3136 23.3132 10.8425 23.1369C11.9003 24.5473 13.3108 25.4288 15.0738 25.4288C15.6027 25.4288 16.3079 25.4288 16.8368 25.2525C17.8946 24.8999 18.5998 24.1947 19.305 23.3132C20.0102 22.2554 20.3628 21.3739 20.3628 20.3161C20.3628 19.6109 20.3628 19.082 20.1865 18.5531L19.305 15.7322L20.3628 15.027C21.7732 13.6166 22.4784 11.6773 22.3021 9.56168H24.594V7.62237H21.7732ZM4.67199 11.6773C3.61418 11.1484 3.26158 10.4432 3.61418 9.38538C3.96678 8.32757 4.67199 7.97497 5.7298 8.32757L11.3714 10.4432C8.55062 11.8536 6.435 12.2062 4.67199 11.6773ZM15.779 21.5502C14.7212 21.9028 14.016 21.5502 13.4871 20.4924C12.9582 18.7294 13.3108 16.6137 14.7212 13.7929L16.8368 19.2583C17.1894 20.4924 16.8368 21.1976 15.779 21.5502ZM17.8946 12.2062L16.8368 9.38538V9.20908L16.3079 8.68018H16.1316L13.3108 7.62237C14.016 7.09346 14.7212 6.74086 15.6027 6.74086C16.4842 6.74086 17.3657 7.09347 18.0709 7.79867C18.7761 8.50388 19.1287 9.20908 19.1287 10.0906C18.7761 10.6195 18.4235 11.501 17.8946 12.2062Z" fill="#F1C963"/>
</svg>
